<svg width="6" height="5" viewBox="0 0 6 5" fill="none" xmlns="http://www.w3.org/2000/svg">
<path d="M3.372 2.508C3.38 2.476 3.384 2.428 3.384 2.364C3.384 2.196 3.34 2.06 3.252 1.956C3.172 1.844 3.064 1.788 2.928 1.788C2.8 1.788 2.66 1.836 2.508 1.932C2.308 2.068 2.208 2.256 2.208 2.496C2.208 2.752 2.312 2.928 2.52 3.024C2.592 3.064 2.656 3.084 2.712 3.084C2.768 3.084 2.84 3.064 2.928 3.024C3.04 2.984 3.136 2.916 3.216 2.82C3.304 2.716 3.356 2.612 3.372 2.508ZM2.112 0.12C2.232 0.0479999 2.392 0.0119998 2.592 0.0119998C2.736 0.0119998 2.852 0.0359998 2.94 0.0839996C3.14 0.188 3.292 0.36 3.396 0.6L3.468 0.792L3.696 0.708C3.832 0.668 3.944 0.648 4.032 0.648C4.32 0.648 4.564 0.764 4.764 0.996C4.964 1.228 5.064 1.496 5.064 1.8C5.064 2.104 4.96 2.36 4.752 2.568C4.68 2.64 4.64 2.692 4.632 2.724C4.624 2.748 4.636 2.792 4.668 2.856C4.764 3.032 4.812 3.224 4.812 3.432C4.812 3.768 4.704 4.064 4.488 4.32C4.272 4.576 3.988 4.704 3.636 4.704C3.3 4.704 3.016 4.584 2.784 4.344C2.704 4.264 2.652 4.22 2.628 4.212C2.604 4.204 2.58 4.22 2.556 4.26C2.508 4.324 2.404 4.392 2.244 4.464C2.092 4.536 1.932 4.572 1.764 4.572C1.532 4.572 1.34 4.512 1.188 4.392C0.892 4.16 0.744 3.844 0.744 3.444C0.744 3.276 0.78 3.112 0.852 2.952L0.96 2.736L0.828 2.568C0.684 2.384 0.612 2.176 0.612 1.944C0.612 1.928 0.612 1.908 0.612 1.884C0.62 1.86 0.624 1.844 0.624 1.836C0.664 1.636 0.764 1.468 0.924 1.332C1.084 1.188 1.252 1.116 1.428 1.116C1.5 1.116 1.544 1.104 1.56 1.08C1.576 1.056 1.592 0.984 1.608 0.864C1.624 0.712 1.68 0.568 1.776 0.432C1.872 0.288 1.984 0.184 2.112 0.12Z" fill="black"/>
</svg>
