<svg width="5" height="7" viewBox="0 0 5 7" fill="none" xmlns="http://www.w3.org/2000/svg">
<path d="M1.272 0.728C1.432 0.648 1.596 0.607999 1.764 0.607999H1.932C2.196 0.624 2.396 0.664 2.532 0.728C2.652 0.784 2.796 0.812 2.964 0.812H3.072H3.144C3.432 0.812 3.664 0.916 3.84 1.124C4.032 1.356 4.128 1.628 4.128 1.94C4.128 2.188 4.064 2.436 3.936 2.684C3.848 2.852 3.712 3.036 3.528 3.236C3.344 3.428 3.176 3.572 3.024 3.668C2.872 3.772 2.796 3.848 2.796 3.896C2.796 3.936 2.816 3.988 2.856 4.052C2.904 4.148 2.928 4.236 2.928 4.316C2.928 4.412 2.884 4.516 2.796 4.628C2.66 4.788 2.48 4.868 2.256 4.868C2.024 4.868 1.828 4.792 1.668 4.64C1.556 4.552 1.492 4.4 1.476 4.184V4.088C1.476 3.72 1.692 3.372 2.124 3.044C2.364 2.876 2.488 2.732 2.496 2.612C2.512 2.5 2.488 2.42 2.424 2.372C2.384 2.332 2.344 2.316 2.304 2.324C2.272 2.324 2.204 2.36 2.1 2.432C1.9 2.56 1.7 2.624 1.5 2.624C1.3 2.624 1.124 2.56 0.972 2.432C0.82 2.296 0.72 2.112 0.672 1.88C0.656 1.824 0.648 1.74 0.648 1.628C0.648 1.228 0.856 0.928 1.272 0.728ZM2.496 5.852C2.464 5.82 2.412 5.8 2.34 5.792C2.268 5.784 2.216 5.796 2.184 5.828C2.16 5.852 2.148 5.888 2.148 5.936C2.148 6.048 2.192 6.124 2.28 6.164C2.328 6.18 2.36 6.188 2.376 6.188C2.432 6.188 2.476 6.172 2.508 6.14C2.548 6.1 2.568 6.056 2.568 6.008C2.568 5.952 2.544 5.9 2.496 5.852ZM1.416 5.972C1.416 5.916 1.456 5.824 1.536 5.696C1.624 5.568 1.668 5.48 1.668 5.432C1.668 5.384 1.708 5.304 1.788 5.192C1.86 5.104 1.972 5.06 2.124 5.06C2.22 5.06 2.304 5.08 2.376 5.12C2.448 5.16 2.516 5.18 2.58 5.18C2.636 5.18 2.68 5.176 2.712 5.168C2.728 5.168 2.748 5.168 2.772 5.168C2.804 5.16 2.824 5.156 2.832 5.156C2.928 5.156 3.012 5.204 3.084 5.3C3.156 5.412 3.184 5.52 3.168 5.624C3.144 5.736 3.168 5.832 3.24 5.912C3.312 6 3.348 6.088 3.348 6.176C3.348 6.296 3.3 6.4 3.204 6.488C3.116 6.576 3.008 6.62 2.88 6.62C2.824 6.62 2.784 6.616 2.76 6.608C2.688 6.584 2.604 6.628 2.508 6.74C2.42 6.852 2.304 6.908 2.16 6.908C1.928 6.908 1.792 6.776 1.752 6.512C1.72 6.376 1.692 6.308 1.668 6.308C1.62 6.308 1.564 6.268 1.5 6.188C1.444 6.108 1.416 6.036 1.416 5.972Z" fill="black"/>
</svg>
